<svg id="visual" viewBox="0 0 960 300" width="960" height="300" xmlns="http://www.w3.org/2000/svg" xmlns:xlink="http://www.w3.org/1999/xlink" version="1.1"><rect x="0" y="0" width="960" height="300" fill="#23272a"></rect><path d="M0 197L11.5 194.7C23 192.3 46 187.7 68.8 192.2C91.7 196.7 114.3 210.3 137.2 212.7C160 215 183 206 205.8 203.5C228.7 201 251.3 205 274.2 199.3C297 193.7 320 178.3 342.8 168C365.7 157.7 388.3 152.3 411.2 151.8C434 151.3 457 155.7 480 166.5C503 177.3 526 194.7 548.8 193.8C571.7 193 594.3 174 617.2 172.3C640 170.7 663 186.3 685.8 187.8C708.7 189.3 731.3 176.7 754.2 169.7C777 162.7 800 161.3 822.8 160C845.7 158.7 868.3 157.3 891.2 163.2C914 169 937 182 948.5 188.5L960 195L960 301L948.5 301C937 301 914 301 891.2 301C868.3 301 845.7 301 822.8 301C800 301 777 301 754.2 301C731.3 301 708.7 301 685.8 301C663 301 640 301 617.2 301C594.3 301 571.7 301 548.8 301C526 301 503 301 480 301C457 301 434 301 411.2 301C388.3 301 365.7 301 342.8 301C320 301 297 301 274.2 301C251.3 301 228.7 301 205.8 301C183 301 160 301 137.2 301C114.3 301 91.7 301 68.8 301C46 301 23 301 11.5 301L0 301Z" fill="#7289da"></path><path d="M0 210L11.5 214.3C23 218.7 46 227.3 68.8 233.7C91.7 240 114.3 244 137.2 244.8C160 245.7 183 243.3 205.8 237C228.7 230.7 251.3 220.3 274.2 213.3C297 206.3 320 202.7 342.8 203C365.7 203.3 388.3 207.7 411.2 206.5C434 205.3 457 198.7 480 200C503 201.3 526 210.7 548.8 218.7C571.7 226.7 594.3 233.3 617.2 233.7C640 234 663 228 685.8 221C708.7 214 731.3 206 754.2 200.5C777 195 800 192 822.8 196.7C845.7 201.3 868.3 213.7 891.2 216.3C914 219 937 212 948.5 208.5L960 205L960 301L948.5 301C937 301 914 301 891.2 301C868.3 301 845.7 301 822.8 301C800 301 777 301 754.2 301C731.3 301 708.7 301 685.8 301C663 301 640 301 617.2 301C594.3 301 571.7 301 548.8 301C526 301 503 301 480 301C457 301 434 301 411.2 301C388.3 301 365.7 301 342.8 301C320 301 297 301 274.2 301C251.3 301 228.7 301 205.8 301C183 301 160 301 137.2 301C114.3 301 91.7 301 68.8 301C46 301 23 301 11.5 301L0 301Z" fill="#6178e8"></path><path d="M0 260L11.5 259C23 258 46 256 68.8 256.3C91.7 256.7 114.3 259.3 137.2 257.3C160 255.3 183 248.7 205.8 249C228.7 249.3 251.3 256.7 274.2 260.7C297 264.7 320 265.3 342.8 268.2C365.7 271 388.3 276 411.2 274.3C434 272.7 457 264.3 480 263C503 261.7 526 267.3 548.8 270.8C571.7 274.3 594.3 275.7 617.2 269.7C640 263.7 663 250.3 685.8 248.2C708.7 246 731.3 255 754.2 256.3C777 257.7 800 251.3 822.8 248.3C845.7 245.3 868.3 245.7 891.2 247.5C914 249.3 937 252.7 948.5 254.3L960 256L960 301L948.5 301C937 301 914 301 891.2 301C868.3 301 845.7 301 822.8 301C800 301 777 301 754.2 301C731.3 301 708.7 301 685.8 301C663 301 640 301 617.2 301C594.3 301 571.7 301 548.8 301C526 301 503 301 480 301C457 301 434 301 411.2 301C388.3 301 365.7 301 342.8 301C320 301 297 301 274.2 301C251.3 301 228.7 301 205.8 301C183 301 160 301 137.2 301C114.3 301 91.7 301 68.8 301C46 301 23 301 11.5 301L0 301Z" fill="#5865f2"></path></svg>