<svg id="visual" viewBox="0 0 960 540" width="960" height="540" xmlns="http://www.w3.org/2000/svg"
      xmlns:xlink="http://www.w3.org/1999/xlink" version="1.1">

      <g transform="translate(454.5583868288731 265.36332781498174)">
        <path id="blob1"
          d="M99.3 -135.8C121.5 -99.7 127.2 -61.6 145.3 -17C163.4 27.5 193.9 78.5 181.6 109.5C169.3 140.5 114.2 151.5 61.4 172.2C8.7 193 -41.8 223.3 -74.1 209.2C-106.3 195 -120.3 136.2 -127.5 90C-134.8 43.7 -135.3 9.9 -130.1 -23.5C-124.9 -56.8 -113.9 -89.7 -91.2 -125.7C-68.6 -161.7 -34.3 -200.9 2.1 -203.4C38.6 -206 77.1 -171.9 99.3 -135.8"
          fill="#D03070"></path>
      </g>
      <g transform="translate(497.0366313524451 239.23903063230568)" style="visibility: hidden;">
        <path id="blob2"
          d="M137.1 -142.6C163.4 -110.8 160.7 -55.4 159.7 -1.1C158.6 53.3 159.2 106.5 132.9 151.5C106.5 196.5 53.3 233.3 -3.9 237.2C-61 241 -122.1 212.1 -157.4 167.1C-192.8 122.1 -202.4 61 -187.8 14.6C-173.2 -31.8 -134.3 -63.6 -99 -95.5C-63.6 -127.3 -31.8 -159.2 11.8 -170.9C55.4 -182.7 110.8 -174.4 137.1 -142.6"
          fill="#D03070"></path>
      </g>
    </svg>