<svg id="visual" viewBox="0 0 960 300" width="960" height="300" xmlns="http://www.w3.org/2000/svg" xmlns:xlink="http://www.w3.org/1999/xlink" version="1.1"><rect x="0" y="0" width="960" height="300" fill="#EB459E"></rect><path d="M0 195L10.7 192.5C21.3 190 42.7 185 64 177.3C85.3 169.7 106.7 159.3 128 153.3C149.3 147.3 170.7 145.7 192 152.5C213.3 159.3 234.7 174.7 256 179.8C277.3 185 298.7 180 320 171.7C341.3 163.3 362.7 151.7 384 148.2C405.3 144.7 426.7 149.3 448 160C469.3 170.7 490.7 187.3 512 190C533.3 192.7 554.7 181.3 576 181.3C597.3 181.3 618.7 192.7 640 194.7C661.3 196.7 682.7 189.3 704 188.8C725.3 188.3 746.7 194.7 768 195.3C789.3 196 810.7 191 832 190C853.3 189 874.7 192 896 184.2C917.3 176.3 938.7 157.7 949.3 148.3L960 139L960 301L949.3 301C938.7 301 917.3 301 896 301C874.7 301 853.3 301 832 301C810.7 301 789.3 301 768 301C746.7 301 725.3 301 704 301C682.7 301 661.3 301 640 301C618.7 301 597.3 301 576 301C554.7 301 533.3 301 512 301C490.7 301 469.3 301 448 301C426.7 301 405.3 301 384 301C362.7 301 341.3 301 320 301C298.7 301 277.3 301 256 301C234.7 301 213.3 301 192 301C170.7 301 149.3 301 128 301C106.7 301 85.3 301 64 301C42.7 301 21.3 301 10.7 301L0 301Z" fill="#ed4245"></path><path d="M0 206L10.7 207.8C21.3 209.7 42.7 213.3 64 219C85.3 224.7 106.7 232.3 128 234.8C149.3 237.3 170.7 234.7 192 227C213.3 219.3 234.7 206.7 256 197.5C277.3 188.3 298.7 182.7 320 178.5C341.3 174.3 362.7 171.7 384 171.2C405.3 170.7 426.7 172.3 448 181.5C469.3 190.7 490.7 207.3 512 211.5C533.3 215.7 554.7 207.3 576 200.8C597.3 194.3 618.7 189.7 640 194.5C661.3 199.3 682.7 213.7 704 216C725.3 218.3 746.7 208.7 768 207.2C789.3 205.7 810.7 212.3 832 208.7C853.3 205 874.7 191 896 185.2C917.3 179.3 938.7 181.7 949.3 182.8L960 184L960 301L949.3 301C938.7 301 917.3 301 896 301C874.7 301 853.3 301 832 301C810.7 301 789.3 301 768 301C746.7 301 725.3 301 704 301C682.7 301 661.3 301 640 301C618.7 301 597.3 301 576 301C554.7 301 533.3 301 512 301C490.7 301 469.3 301 448 301C426.7 301 405.3 301 384 301C362.7 301 341.3 301 320 301C298.7 301 277.3 301 256 301C234.7 301 213.3 301 192 301C170.7 301 149.3 301 128 301C106.7 301 85.3 301 64 301C42.7 301 21.3 301 10.7 301L0 301Z" fill="#f8673d"></path><path d="M0 234L10.7 228.3C21.3 222.7 42.7 211.3 64 208.8C85.3 206.3 106.7 212.7 128 219.7C149.3 226.7 170.7 234.3 192 238.7C213.3 243 234.7 244 256 243.8C277.3 243.7 298.7 242.3 320 234.2C341.3 226 362.7 211 384 213C405.3 215 426.7 234 448 237.5C469.3 241 490.7 229 512 217.7C533.3 206.3 554.7 195.7 576 200.5C597.3 205.3 618.7 225.7 640 236.2C661.3 246.7 682.7 247.3 704 248.2C725.3 249 746.7 250 768 250.3C789.3 250.7 810.7 250.3 832 244.3C853.3 238.3 874.7 226.7 896 226.3C917.3 226 938.7 237 949.3 242.5L960 248L960 301L949.3 301C938.7 301 917.3 301 896 301C874.7 301 853.3 301 832 301C810.7 301 789.3 301 768 301C746.7 301 725.3 301 704 301C682.7 301 661.3 301 640 301C618.7 301 597.3 301 576 301C554.7 301 533.3 301 512 301C490.7 301 469.3 301 448 301C426.7 301 405.3 301 384 301C362.7 301 341.3 301 320 301C298.7 301 277.3 301 256 301C234.7 301 213.3 301 192 301C170.7 301 149.3 301 128 301C106.7 301 85.3 301 64 301C42.7 301 21.3 301 10.7 301L0 301Z" fill="#fe8938"></path><path d="M0 233L10.7 233.5C21.3 234 42.7 235 64 232.2C85.3 229.3 106.7 222.7 128 218.8C149.3 215 170.7 214 192 214.7C213.3 215.3 234.7 217.7 256 217C277.3 216.3 298.7 212.7 320 217.3C341.3 222 362.7 235 384 235.8C405.3 236.7 426.7 225.3 448 228.3C469.3 231.3 490.7 248.7 512 257.2C533.3 265.7 554.7 265.3 576 263.5C597.3 261.7 618.7 258.3 640 256.5C661.3 254.7 682.7 254.3 704 253.8C725.3 253.3 746.7 252.7 768 246.2C789.3 239.7 810.7 227.3 832 220.5C853.3 213.7 874.7 212.3 896 213C917.3 213.7 938.7 216.3 949.3 217.7L960 219L960 301L949.3 301C938.7 301 917.3 301 896 301C874.7 301 853.3 301 832 301C810.7 301 789.3 301 768 301C746.7 301 725.3 301 704 301C682.7 301 661.3 301 640 301C618.7 301 597.3 301 576 301C554.7 301 533.3 301 512 301C490.7 301 469.3 301 448 301C426.7 301 405.3 301 384 301C362.7 301 341.3 301 320 301C298.7 301 277.3 301 256 301C234.7 301 213.3 301 192 301C170.7 301 149.3 301 128 301C106.7 301 85.3 301 64 301C42.7 301 21.3 301 10.7 301L0 301Z" fill="#ffa93a"></path><path d="M0 257L10.7 254.8C21.3 252.7 42.7 248.3 64 249.2C85.3 250 106.7 256 128 255.5C149.3 255 170.7 248 192 249C213.3 250 234.7 259 256 259.3C277.3 259.7 298.7 251.3 320 250.2C341.3 249 362.7 255 384 258.5C405.3 262 426.7 263 448 260.8C469.3 258.7 490.7 253.3 512 250.8C533.3 248.3 554.7 248.7 576 253.7C597.3 258.7 618.7 268.3 640 268.2C661.3 268 682.7 258 704 256C725.3 254 746.7 260 768 258.3C789.3 256.7 810.7 247.3 832 245.5C853.3 243.7 874.7 249.3 896 252C917.3 254.7 938.7 254.3 949.3 254.2L960 254L960 301L949.3 301C938.7 301 917.3 301 896 301C874.7 301 853.3 301 832 301C810.7 301 789.3 301 768 301C746.7 301 725.3 301 704 301C682.7 301 661.3 301 640 301C618.7 301 597.3 301 576 301C554.7 301 533.3 301 512 301C490.7 301 469.3 301 448 301C426.7 301 405.3 301 384 301C362.7 301 341.3 301 320 301C298.7 301 277.3 301 256 301C234.7 301 213.3 301 192 301C170.7 301 149.3 301 128 301C106.7 301 85.3 301 64 301C42.7 301 21.3 301 10.7 301L0 301Z" fill="#ffc846"></path><path d="M0 267L10.7 266.5C21.3 266 42.7 265 64 265.5C85.3 266 106.7 268 128 272.5C149.3 277 170.7 284 192 284.2C213.3 284.3 234.7 277.7 256 272.8C277.3 268 298.7 265 320 264.3C341.3 263.7 362.7 265.3 384 267.2C405.3 269 426.7 271 448 269.5C469.3 268 490.7 263 512 265.8C533.3 268.7 554.7 279.3 576 284C597.3 288.7 618.7 287.3 640 285.5C661.3 283.7 682.7 281.3 704 278.7C725.3 276 746.7 273 768 269.7C789.3 266.3 810.7 262.7 832 261C853.3 259.3 874.7 259.7 896 260C917.3 260.3 938.7 260.7 949.3 260.8L960 261L960 301L949.3 301C938.7 301 917.3 301 896 301C874.7 301 853.3 301 832 301C810.7 301 789.3 301 768 301C746.7 301 725.3 301 704 301C682.7 301 661.3 301 640 301C618.7 301 597.3 301 576 301C554.7 301 533.3 301 512 301C490.7 301 469.3 301 448 301C426.7 301 405.3 301 384 301C362.7 301 341.3 301 320 301C298.7 301 277.3 301 256 301C234.7 301 213.3 301 192 301C170.7 301 149.3 301 128 301C106.7 301 85.3 301 64 301C42.7 301 21.3 301 10.7 301L0 301Z" fill="#fee75c"></path></svg>